<?xml version="1.0" encoding="utf-8"?>
<!-- Generator: Adobe Illustrator 16.0.0, SVG Export Plug-In . SVG Version: 6.00 Build 0)  -->
<!DOCTYPE svg PUBLIC "-//W3C//DTD SVG 1.1//EN" "http://www.w3.org/Graphics/SVG/1.1/DTD/svg11.dtd">
<svg version="1.1" id="Layer_1" xmlns="http://www.w3.org/2000/svg" xmlns:xlink="http://www.w3.org/1999/xlink" x="0px" y="0px"
	 viewBox="0 0 285 67" enable-background="new 0 0 285 67" xml:space="preserve">
<g>
	<path fill="#E1734F" d="M246.103,25.208c-5.174-1.38-8.971-0.379-11.065,2.931c-1.212,1.873-2.023,3.907-2.435,6.104
		c-0.411,2.191-0.392,4.383,0.058,6.568c0.505,2.607,2.661,3.759,5.271,3.014c1.393-0.403,2.586-1.137,3.581-2.191
		c0.994-1.055,1.659-2.29,1.984-3.706C244.637,33.791,245.247,29.516,246.103,25.208z M221.128,64.568
		c0.514-2.266,0.953-4.3,1.361-5.985c3.806,0.151,7.362,0.59,10.913,0.354c5.649-0.373,8.695-3.683,9.267-9.361
		c0.095-0.999,0.284-1.997,0.492-3.419l-1.75,1.631c-1.54,1.452-3.345,2.415-5.409,2.887c-2.066,0.474-4.11,0.389-6.129-0.254
		c-3.063-0.836-4.845-2.997-5.71-6.013c-2.16-7.537,1.201-18.172,7.612-22.66c2.406-1.65,5.038-2.768,7.896-3.353
		c5.004-1.046,10.065-0.351,15.221,0.563c-0.638,4.805-1.245,9.457-1.901,14.109c-0.799,5.708-1.665,11.472-2.435,17.221
		c-1.229,9.197-7.175,14.915-16.47,15.585C229.681,66.302,225.359,65.865,221.128,64.568L221.128,64.568z"/>
	<path fill="#E17450" d="M157.956,50.572c0.762-5.575,1.475-10.732,2.17-15.896c0.265-2.006,0.59-4.026,0.656-6.043
		c0.104-2.931-1.667-4.232-4.501-3.424c-1.267,0.316-2.381,0.91-3.348,1.791c-0.963,0.878-1.661,1.934-2.094,3.165
		c-1.124,3.955-2.021,7.959-2.691,12.018c-0.449,2.274-0.581,4.605-0.954,6.886c-0.104,0.543-0.724,1.399-1.148,1.429
		c-2.304,0.142-4.616,0.066-7.23,0.066l5.48-40.188l-5.292-0.771c0.107-1.421,0.292-2.833,0.554-4.232
		c0.307-0.55,0.773-0.864,1.396-0.954c4.035-0.321,8.069-0.539,12.51-0.827l-2.69,19.027l1.722-1.473
		c1.456-1.247,3.107-2.136,4.953-2.66c1.841-0.529,3.711-0.646,5.608-0.356c4.545,0.572,6.849,3.938,6.247,9.032
		c-0.502,4.241-1.11,8.473-1.683,12.716c-0.388,2.95-0.865,5.881-1.179,8.84c-0.142,1.33-0.571,1.901-2.009,1.901
		C162.333,50.45,160.306,50.572,157.956,50.572z"/>
	<path fill="#E17450" d="M0.662,59.745l5.48-11.314c0.429-0.903,0.875-1.788,1.484-3.032h-6.86
		c3.215-6.411,6.25-12.445,9.514-18.857H3.068l1.018-7.46c0.742-0.058,1.361-0.144,1.99-0.152c3.329-0.057,3.901-0.496,4.813-3.807
		c0.307-1.121,0.582-2.245,0.904-3.356c1.905-6.405,6.194-10.039,12.818-10.677c2.852-0.273,5.707,0,9.083,0
		c-0.647,3.035-1.178,5.538-1.75,8.193c-3.329-0.265-6.823-1.446-9.447,1.473c-2.009,2.236-2.132,5.109-2.264,8.127h8.259
		c-0.306,3.225-0.887,5.935-3.427,8.181c-3.806,3.338-7.211,7.088-11.15,11.017h7.325l0.382,0.554L0.785,59.888L0.662,59.745z"/>
	<path fill="#E1734F" d="M188.875,36.302c-1.646,0.063-3.278,0.246-4.898,0.55c-1.551,0.378-2.988,1.01-4.309,1.904
		c-0.708,0.458-1.178,1.087-1.421,1.893c-0.24,0.806-0.193,1.592,0.145,2.362c0.714,1.756,2.322,1.769,3.873,1.586
		C185.688,44.188,188.847,40.325,188.875,36.302z M189.646,30.916c1.124-4.756-0.171-6.66-4.757-6.393
		c-3.197,0.188-6.347,1.083-9.618,1.684c0-1.579-0.057-3.551,0.057-5.519c0-0.381,0.647-0.95,1.105-1.055
		c4.894-1.696,9.894-2.122,15.004-1.285c5.518,1.01,7.755,4.214,6.993,9.799c-0.62,4.522-1.277,9.039-1.906,13.559
		c-0.094,0.705-0.084,1.426-0.132,2.273l4.937,0.742c0.096,0.2,0.209,0.333,0.198,0.446c-0.52,4.898-0.52,4.938-5.456,5.089
		c-2.666,0.088-5.339,0-8.165,0l0.344-3.803c-0.79,0.644-1.267,1.008-1.725,1.396c-2.397,2.097-5.187,3.146-8.37,3.151
		c-6.403,0.075-9.571-4.33-7.519-10.417c0.544-1.697,1.435-3.177,2.677-4.454c1.238-1.275,2.696-2.208,4.374-2.798
		c3.171-0.982,6.394-1.75,9.666-2.3C188.113,30.931,188.878,30.893,189.646,30.916L189.646,30.916z"/>
	<path fill="#E1734F" d="M265.436,30.003h10.876c0.729-3.386-0.582-5.433-3.494-6.032c-2.739-0.57-7.191,1.979-7.354,6.032H265.436z
		 M264.359,35.759c-1.046,5.262,1.229,8.487,6.155,8.458c3.424,0,6.843-0.762,10.464-1.2c0,1.343,0.077,3.115,0,4.87
		c-0.157,0.62-0.533,1.046-1.121,1.289c-4.887,1.725-9.879,2.146-14.984,1.255c-5.271-1.026-8.146-3.808-8.8-9.145
		c-0.875-7.135,0.617-13.775,5.889-19.028c4.197-4.176,9.391-5.287,15.06-3.996c4.426,1.002,7.078,4.356,7.517,9.037
		c0.011,0.146,0.011,0.287,0,0.431c-0.207,2.302,0.133,4.86-0.77,6.85c-1.21,2.654-4.129,0.951-6.231,1.093
		C273.168,35.986,268.803,35.759,264.359,35.759z"/>
	<path fill="#E1744F" d="M62.817,30.44h11.036c0.733-3.234-0.378-5.345-3.055-5.993C67.26,23.601,63.903,26.064,62.817,30.44z
		 M78.392,43.551c0,1.314,0.085,3.045,0,4.758c-0.162,0.608-0.532,1.032-1.115,1.275c-4.82,1.725-9.75,2.139-14.792,1.247
		c-6.099-1.115-9.068-4.757-9.154-11.648c-0.066-5.762,1.257-11.264,5.319-15.699c4.432-4.852,9.959-6.317,16.171-4.758
		c4.757,1.2,7.174,4.979,7.282,10.591c0.113,6.367-0.298,6.784-6.559,6.784c-3.622,0-7.258,0-10.893,0
		c-0.856,0-1.722,0.107-2.568,0.154c-1.475,4.194,0.638,8.038,4.937,8.183C70.779,44.616,74.567,43.913,78.392,43.551z"/>
	<path fill="#E17450" d="M93.139,30.357h11.121c0.629-3.446-0.364-5.301-3.102-5.977C97.781,23.535,94.643,25.777,93.139,30.357z
		 M108.847,43.38c0,1.342,0.075,3.074-0.047,4.758c-0.129,0.615-0.48,1.061-1.048,1.33c-5.329,1.705-10.759,2.409-16.258,0.952
		c-5.015-1.313-7.385-4.959-7.716-9.885c-0.429-6.204,0.847-12.054,4.995-16.877c4.321-5.013,9.934-6.604,16.326-5.063
		c0.988,0.215,1.918,0.581,2.784,1.105c0.865,0.519,1.623,1.17,2.274,1.945c0.65,0.773,1.156,1.637,1.519,2.578
		c0.364,0.947,0.563,1.923,0.598,2.938c0.009,2.456-0.118,4.907-0.383,7.352c-0.066,1.333-0.795,1.637-2.015,1.628
		c-5.3-0.061-10.6,0-15.897-0.061c-1.741,0-2.122,0.765-2.056,2.217c0.18,3.873,2.445,6.336,6.355,6.235
		C101.824,44.464,105.259,43.8,108.847,43.38z"/>
	<path fill="#E1734F" d="M139.288,19.024c-0.646,2.539-1.225,4.832-1.703,6.733c-2.68-0.138-5.145-0.605-7.495-0.265
		c-1.739,0.354-3.18,1.206-4.33,2.558c-1.256,1.549-2.128,3.286-2.611,5.219c-0.484,1.934-0.531,3.873-0.146,5.832
		c0.464,3.082,2.213,4.517,5.326,4.699c1.162,0.063,2.321,0.014,3.474-0.151c1.121-0.174,2.227-0.556,3.461-0.867
		c0,2.026,0.077,3.946-0.056,5.858c-0.171,0.618-0.557,1.038-1.15,1.267c-4.227,1.267-8.505,1.753-12.837,0.524
		c-1.752-0.402-3.246-1.258-4.476-2.571c-1.226-1.317-1.979-2.865-2.258-4.64c-1.248-6.976,0-13.539,4.633-19.028
		C124.399,17.957,131.42,17.274,139.288,19.024z"/>
	<path fill="#E1734F" d="M45.113,23.345l-0.117-0.133l-0.114,0.119l0.173,0.133L45.113,23.345z M41.676,50.572h-8.048
		c1.131-8.39,2.256-16.677,3.405-25.221l-5.297-0.771c0.18-1.494,0.265-2.852,0.559-4.194c0.184-0.539,0.553-0.884,1.105-1.027
		c4.024-0.287,8.058-0.476,12.225-0.693c-0.228,1.617-0.398,2.852-0.569,4.005c2.853-2.616,5.784-4.901,10.158-4.426
		c-0.483,2.662-0.951,5.203-1.405,7.679c-0.212,0.122-0.345,0.266-0.458,0.246c-5.272-0.543-7.726,2.502-8.696,6.658
		c-1.122,4.758-1.693,9.698-2.492,14.549C41.992,48.431,41.885,49.44,41.676,50.572z"/>
	<path fill="#E1744F" d="M207.816,24.981l-5.276-0.714c0.18-1.531,0.273-3.017,0.587-4.463c0.078-0.363,0.84-0.789,1.304-0.827
		c3.893-0.257,7.784-0.439,11.968-0.648c-0.284,1.802-0.521,3.254-0.847,5.206c2.855-3.513,5.632-6.119,10.361-5.479
		c-0.455,2.596-0.951,5.119-1.34,7.608c-6.983,0.954-9.276,3.568-10.256,11.419c-0.543,4.368-1.2,8.723-1.818,13.174h-8.124
		C205.528,41.791,206.648,33.503,207.816,24.981z"/>
	<path fill="#E17450" d="M0.757,59.858l-0.303,0.247c0.076-0.115,0.142-0.237,0.208-0.36L0.757,59.858z"/>
</g>
</svg>
